# xmcd
#
# Track frame offsets:
#	150
#	11912
#	20325
#	32718
#	48105
#	60055
#	74750
#
# Disc length: 1173 seconds
#
# Revision: 0
# Processed by: cddbd v1.5PL3 Copyright (c) Steve Scherf et al.
# Submitted via: dBpowerAMP V4.0
#
DISCID=52049307
DTITLE=varis - tradicionals
DYEAR=1900
DGENRE=Vocal
TTITLE0=En Joan Petit
TTITLE1=Una dona llarga i prima
TTITLE2=Marrameu
TTITLE3=La Bicicleta
TTITLE4=En Joan 2
TTITLE5=Jo i tu
TTITLE6=Quan plou
EXTD=traditional
EXTT0=
EXTT1=
EXTT2=
EXTT3=
EXTT4=
EXTT5=
EXTT6=
PLAYORDER=
